<svg width="50" height="50" viewBox="0 0 50 50" fill="none" xmlns="http://www.w3.org/2000/svg">
<rect width="50" height="50" rx="8" fill="#347571"/>
<path d="M31 21H32C32.2652 21 32.5196 21.1054 32.7071 21.2929C32.8946 21.4804 33 21.7348 33 22V32C33 32.2652 32.8946 32.5196 32.7071 32.7071C32.5196 32.8946 32.2652 33 32 33H16C15.7348 33 15.4804 32.8946 15.2929 32.7071C15.1054 32.5196 15 32.2652 15 32V22C15 21.7348 15.1054 21.4804 15.2929 21.2929C15.4804 21.1054 15.7348 21 16 21H17V20C17 19.0807 17.1811 18.1705 17.5328 17.3212C17.8846 16.4719 18.4002 15.7003 19.0503 15.0503C19.7003 14.4002 20.4719 13.8846 21.3212 13.5328C22.1705 13.1811 23.0807 13 24 13C24.9193 13 25.8295 13.1811 26.6788 13.5328C27.5281 13.8846 28.2997 14.4002 28.9497 15.0503C29.5998 15.7003 30.1154 16.4719 30.4672 17.3212C30.8189 18.1705 31 19.0807 31 20V21ZM17 23V31H31V23H17ZM23 25H25V29H23V25ZM29 21V20C29 18.6739 28.4732 17.4021 27.5355 16.4645C26.5979 15.5268 25.3261 15 24 15C22.6739 15 21.4021 15.5268 20.4645 16.4645C19.5268 17.4021 19 18.6739 19 20V21H29Z" fill="white"/>
</svg>
