<svg width="50" height="50" viewBox="0 0 50 50" fill="none" xmlns="http://www.w3.org/2000/svg">
<rect width="50" height="50" rx="8" fill="#347571"/>
<path d="M31 14C27.6762 14 25 16.6762 25 20V21H15.9297C14.8345 21 14 21.9456 14 23V33C14 34.0544 14.8345 35 15.9297 35H27.0703C28.1655 35 29 34.0544 29 33V23C29 21.9456 28.1676 21 27.0723 21H27V20C27 17.7238 28.7238 16 31 16C33.2762 16 35 17.7238 35 20V22H37V20C37 16.6762 34.3238 14 31 14ZM16 23H27V33H16V23ZM21.5078 26C20.4078 26 19.5078 26.9 19.5078 28C19.5078 29.1 20.4078 30 21.5078 30C22.6078 30 23.5078 29.1 23.5078 28C23.5078 26.9 22.6078 26 21.5078 26Z" fill="white"/>
</svg>
